    <svg xmlns="http://www.w3.org/2000/svg" viewBox="0 0 1800 900" width="1800"
         height="900" role="img"
         aria-label="PHA-348 · History · past pages · Desktop · ≥1025px mockup">
      <title>PHA-348 · History · past pages · Desktop · ≥1025px</title>
      <desc>viewBox 1440×900 device + 360px rail · tokens from design/tokens.css · components from design/components.md</desc>
    <defs>
  <pattern id="paperGrain" x="0" y="0" width="60" height="60" patternUnits="userSpaceOnUse">
    <rect width="60" height="60" fill="#F1E4C8"/>
    <circle cx="11" cy="14" r="0.6" fill="#C9B388" opacity="0.5"/>
    <circle cx="42" cy="22" r="0.5" fill="#C9B388" opacity="0.4"/>
    <circle cx="29" cy="48" r="0.7" fill="#C9B388" opacity="0.45"/>
    <circle cx="55" cy="51" r="0.4" fill="#C9B388" opacity="0.3"/>
  </pattern>
  <pattern id="leatherGrain" x="0" y="0" width="80" height="80" patternUnits="userSpaceOnUse">
    <rect width="80" height="80" fill="#3B2A1A"/>
    <path d="M0 13 q40 -3 80 0 M0 41 q40 4 80 0 M0 67 q40 -4 80 0" stroke="#1B120A"
          stroke-width="0.6" fill="none" opacity="0.5"/>
  </pattern>
  <radialGradient id="lamp" cx="18%" cy="12%" r="65%">
    <stop offset="0%" stop-color="#D4A24C" stop-opacity="0.18"/>
    <stop offset="55%" stop-color="#D4A24C" stop-opacity="0.06"/>
    <stop offset="100%" stop-color="#D4A24C" stop-opacity="0"/>
  </radialGradient>
  <filter id="hand" x="-2%" y="-50%" width="104%" height="200%">
    <feTurbulence type="fractalNoise" baseFrequency="0.7" numOctaves="2" seed="3"/>
    <feDisplacementMap in="SourceGraphic" scale="0.6"/>
  </filter>
  <symbol id="paperclip" viewBox="0 0 40 60">
    <path d="M20 4 q-9 0 -9 9 v36 q0 9 9 9 t9 -9 v-30 q0 -5 -5 -5 t-5 5 v22"
          fill="none" stroke="#D4A24C" stroke-width="2.2" stroke-linecap="round"/>
  </symbol>
  <symbol id="touchHint" viewBox="0 0 44 44">
    <rect x="0" y="0" width="44" height="44" fill="none" stroke="#D4A24C"
          stroke-width="1" stroke-dasharray="3 3" opacity="0.6"/>
  </symbol>
</defs>

      <!-- backdrop matches body chrome (leather over texture-leather) -->
      <rect x="0" y="0" width="1800" height="900" fill="#3B2A1A"/>
      <rect x="0" y="0" width="1440" height="900" fill="url(#leatherGrain)"/>
    <!-- leather book chrome -->
<rect x="0" y="0" width="1440" height="900" fill="url(#leatherGrain)"/>
<rect x="0" y="0" width="1440" height="900" fill="#3B2A1A" opacity="0.15"/>
<!-- spine inset shadow -->
<rect x="0" y="0" width="1440" height="3" fill="#1B120A"/>
<rect x="0" y="897" width="1440" height="3" fill="#1B120A"/>
<rect x="0" y="0" width="3" height="900" fill="#1B120A"/>
<rect x="1437" y="0" width="3" height="900" fill="#1B120A"/>
<!-- paper page -->
<rect x="18" y="18" width="1404" height="864"
      fill="url(#paperGrain)" stroke="#C9B388" stroke-width="0.5"/>
<!-- amber lamp wash from top-left -->
<rect x="18" y="18" width="1404" height="864" fill="url(#lamp)"/>

    <text x="36" y="56" font-family="'Special Elite', 'Courier New', Courier, monospace" font-size="11" fill="#2A1F12" letter-spacing="2">HISTORY · PAST PAGES</text>
<rect x="716" y="18" width="8" height="864" fill="#1B120A" opacity="0.4"/>
<g transform="rotate(-1.2 363.0 167.0)">
<rect x="66" y="122" width="594" height="90" fill="#F1E4C8" stroke="#C9B388" stroke-width="0.6" rx="4"/>
<text x="82" y="150" font-family="'Special Elite', 'Courier New', Courier, monospace" font-size="12" fill="#2A1F12" letter-spacing="2">D14 · Tue · clear</text>
<text x="82" y="178" font-family="'Caveat', 'Patrick Hand', 'Bradley Hand', cursive" font-size="20" fill="#1F2A4A">Maya killed a feral.</text>
<text x="570" y="150" font-family="'IBM Plex Mono', ui-monospace, Menlo, Consolas, monospace" font-size="11" fill="#1F2A4A">HIGH</text>
<use href="#paperclip" x="351.0" y="110" width="24" height="36"/>
</g>
<g transform="rotate(-0.6 363.0 249.0)">
<rect x="66" y="204" width="594" height="90" fill="#F1E4C8" stroke="#C9B388" stroke-width="0.6" rx="4"/>
<text x="82" y="232" font-family="'Special Elite', 'Courier New', Courier, monospace" font-size="12" fill="#2A1F12" letter-spacing="2">D13 · Mon · rain</text>
<text x="82" y="260" font-family="'Caveat', 'Patrick Hand', 'Bradley Hand', cursive" font-size="20" fill="#1F2A4A">Lost 2 food to mold.</text>
<text x="570" y="232" font-family="'IBM Plex Mono', ui-monospace, Menlo, Consolas, monospace" font-size="11" fill="#2A1F12">OK</text>
<use href="#paperclip" x="351.0" y="192" width="24" height="36"/>
</g>
<g transform="rotate(0.0 363.0 331.0)">
<rect x="66" y="286" width="594" height="90" fill="#F1E4C8" stroke="#C9B388" stroke-width="0.6" rx="4"/>
<text x="82" y="314" font-family="'Special Elite', 'Courier New', Courier, monospace" font-size="12" fill="#2A1F12" letter-spacing="2">D12 · Sun · clear</text>
<text x="82" y="342" font-family="'Caveat', 'Patrick Hand', 'Bradley Hand', cursive" font-size="20" fill="#1F2A4A">Found 4 medkits at the pharm.</text>
<text x="570" y="314" font-family="'IBM Plex Mono', ui-monospace, Menlo, Consolas, monospace" font-size="11" fill="#1F2A4A">HIGH</text>
<use href="#paperclip" x="351.0" y="274" width="24" height="36"/>
</g>
<g transform="rotate(-1.2 363.0 413.0)">
<rect x="66" y="368" width="594" height="90" fill="#F1E4C8" stroke="#C9B388" stroke-width="0.6" rx="4"/>
<text x="82" y="396" font-family="'Special Elite', 'Courier New', Courier, monospace" font-size="12" fill="#2A1F12" letter-spacing="2">D11 · Sat · fog</text>
<text x="82" y="424" font-family="'Caveat', 'Patrick Hand', 'Bradley Hand', cursive" font-size="20" fill="#1F2A4A">Reyes — KIA. North highway.</text>
<text x="570" y="396" font-family="'IBM Plex Mono', ui-monospace, Menlo, Consolas, monospace" font-size="11" fill="#7E1E1E">LOW</text>
<use href="#paperclip" x="351.0" y="356" width="24" height="36"/>
</g>
<g transform="rotate(-0.6 363.0 495.0)">
<rect x="66" y="450" width="594" height="90" fill="#F1E4C8" stroke="#C9B388" stroke-width="0.6" rx="4"/>
<text x="82" y="478" font-family="'Special Elite', 'Courier New', Courier, monospace" font-size="12" fill="#2A1F12" letter-spacing="2">D10 · Fri · clear</text>
<text x="82" y="506" font-family="'Caveat', 'Patrick Hand', 'Bradley Hand', cursive" font-size="20" fill="#1F2A4A">Sam joined the community.</text>
<text x="570" y="478" font-family="'IBM Plex Mono', ui-monospace, Menlo, Consolas, monospace" font-size="11" fill="#1F2A4A">HIGH</text>
<use href="#paperclip" x="351.0" y="438" width="24" height="36"/>
</g>
<g transform="rotate(0.0 363.0 577.0)">
<rect x="66" y="532" width="594" height="90" fill="#F1E4C8" stroke="#C9B388" stroke-width="0.6" rx="4"/>
<text x="82" y="560" font-family="'Special Elite', 'Courier New', Courier, monospace" font-size="12" fill="#2A1F12" letter-spacing="2">D09 · Thu · clear</text>
<text x="82" y="588" font-family="'Caveat', 'Patrick Hand', 'Bradley Hand', cursive" font-size="20" fill="#1F2A4A">Cleared the south plague heart</text>
<text x="570" y="560" font-family="'IBM Plex Mono', ui-monospace, Menlo, Consolas, monospace" font-size="11" fill="#2A1F12">OK</text>
<use href="#paperclip" x="351.0" y="520" width="24" height="36"/>
</g>
<g transform="rotate(-1.2 363.0 659.0)">
<rect x="66" y="614" width="594" height="90" fill="#F1E4C8" stroke="#C9B388" stroke-width="0.6" rx="4"/>
<text x="82" y="642" font-family="'Special Elite', 'Courier New', Courier, monospace" font-size="12" fill="#2A1F12" letter-spacing="2">D08 · Wed · rain</text>
<text x="82" y="670" font-family="'Caveat', 'Patrick Hand', 'Bradley Hand', cursive" font-size="20" fill="#1F2A4A">Quiet day. Repaired the gate.</text>
<text x="570" y="642" font-family="'IBM Plex Mono', ui-monospace, Menlo, Consolas, monospace" font-size="11" fill="#2A1F12">OK</text>
<use href="#paperclip" x="351.0" y="602" width="24" height="36"/>
</g>
<rect x="750" y="122" width="592" height="704" fill="#F1E4C8" stroke="#C9B388" stroke-width="0.6" rx="4"/>
<use href="#paperclip" x="1032.0" y="108" width="28" height="44"/>
<text x="770" y="152" font-family="'Special Elite', 'Courier New', Courier, monospace" font-size="13" fill="#2A1F12" letter-spacing="2">D12 · SUN · CLEAR</text>
<text x="770" y="182" font-family="'Caveat', 'Patrick Hand', 'Bradley Hand', cursive" font-size="24" fill="#1F2A4A">A long, quiet day.</text>
<text x="770" y="222" font-family="'Caveat', 'Patrick Hand', 'Bradley Hand', cursive" font-size="20" fill="#1F2A4A">Marcus drove the truck to the pharmacy on 9th.</text>
<text x="770" y="250" font-family="'Caveat', 'Patrick Hand', 'Bradley Hand', cursive" font-size="20" fill="#1F2A4A">Found 4 medkits, 2 cans of food, an unopened</text>
<text x="770" y="278" font-family="'Caveat', 'Patrick Hand', 'Bradley Hand', cursive" font-size="20" fill="#1F2A4A">bottle of antibiotics. Lena watched the door.</text>
<text x="770" y="306" font-family="'Caveat', 'Patrick Hand', 'Bradley Hand', cursive" font-size="20" fill="#1F2A4A">No infestations along the route. We slept well.</text>
<text x="770" y="766" font-family="'Special Elite', 'Courier New', Courier, monospace" font-size="10" fill="#2A1F12" letter-spacing="2">RESOURCES Δ</text>
<text x="770" y="788" font-family="'IBM Plex Mono', ui-monospace, Menlo, Consolas, monospace" font-size="11" fill="#2A1F12">food +2 · meds +4 · ammo 0 · fuel −1</text>
<path d="M1362 122 h52 q12 0 12 12 v40 q0 12 -12 12 h-52 z" fill="#C9B388" stroke="#3B2A1A" stroke-width="0.6"/>
<text x="1370" y="158.0" font-family="'Special Elite', 'Courier New', Courier, monospace" font-size="10" fill="#2A1F12" letter-spacing="1.5">PEOPLE</text>
<path d="M1362 194 h52 q12 0 12 12 v40 q0 12 -12 12 h-52 z" fill="#C9B388" stroke="#3B2A1A" stroke-width="0.6"/>
<text x="1370" y="230.0" font-family="'Special Elite', 'Courier New', Courier, monospace" font-size="10" fill="#2A1F12" letter-spacing="1.5">RES</text>
<path d="M1358 266 h52 q12 0 12 12 v40 q0 12 -12 12 h-52 z" fill="#F1E4C8" stroke="#3B2A1A" stroke-width="0.6"/>
<text x="1366" y="302.0" font-family="'Special Elite', 'Courier New', Courier, monospace" font-size="10" fill="#2A1F12" letter-spacing="1.5">EVENTS</text>
<line x1="1358" y1="329" x2="1418" y2="329" stroke="#D4A24C" stroke-width="2"/>
<path d="M1362 338 h52 q12 0 12 12 v40 q0 12 -12 12 h-52 z" fill="#C9B388" stroke="#3B2A1A" stroke-width="0.6"/>
<text x="1370" y="374.0" font-family="'Special Elite', 'Courier New', Courier, monospace" font-size="10" fill="#2A1F12" letter-spacing="1.5">DISP</text>
    <rect x="1440" y="0" width="360" height="900" fill="#FAF6EC"/>
<line x1="1440" y1="0" x2="1440" y2="900" stroke="#C9B388" stroke-width="1"/>
<text x="1456" y="28" font-family="'Special Elite', 'Courier New', Courier, monospace" font-size="11" fill="#2A1F12" letter-spacing="2">ANNOTATIONS</text>
<line x1="1456" y1="36" x2="1784" y2="36" stroke="#2A1F12" stroke-width="0.6" opacity="0.5"/>
<line x1="136" y1="242" x2="1440" y2="68" stroke="#7E1E1E" stroke-width="0.6" stroke-dasharray="2 2" opacity="0.7"/>
<circle cx="136" cy="242" r="9" fill="#F1E4C8" stroke="#7E1E1E" stroke-width="1"/>
<text x="136" y="246" text-anchor="middle" font-family="'Special Elite', 'Courier New', Courier, monospace" font-size="10" fill="#7E1E1E">1</text>
<circle cx="1464" cy="68" r="9" fill="#F1E4C8" stroke="#7E1E1E" stroke-width="1"/>
<text x="1464" y="72" text-anchor="middle" font-family="'Special Elite', 'Courier New', Courier, monospace" font-size="10" fill="#7E1E1E">1</text>
<text x="1480" y="72" font-family="'Special Elite', 'Courier New', Courier, monospace" font-size="11" fill="#2A1F12" letter-spacing="1">Stacked past day card</text>
<text x="1480" y="88" font-family="'IBM Plex Mono', ui-monospace, Menlo, Consolas, monospace" font-size="9.5" fill="#1F2A4A">--paper · --shadow-card · pinned ±0.6°</text>
<text x="1480" y="102" font-family="'IBM Plex Mono', ui-monospace, Menlo, Consolas, monospace" font-size="9" fill="#2A1F12" opacity="0.85">Click expands to full detail on the right page; arrow</text>
<text x="1480" y="114" font-family="'IBM Plex Mono', ui-monospace, Menlo, Consolas, monospace" font-size="9" fill="#2A1F12" opacity="0.85">keys cycle days.</text>
<line x1="660.0" y1="122" x2="1440" y2="232" stroke="#7E1E1E" stroke-width="0.6" stroke-dasharray="2 2" opacity="0.7"/>
<circle cx="660.0" cy="122" r="9" fill="#F1E4C8" stroke="#7E1E1E" stroke-width="1"/>
<text x="660.0" y="126" text-anchor="middle" font-family="'Special Elite', 'Courier New', Courier, monospace" font-size="10" fill="#7E1E1E">2</text>
<circle cx="1464" cy="232" r="9" fill="#F1E4C8" stroke="#7E1E1E" stroke-width="1"/>
<text x="1464" y="236" text-anchor="middle" font-family="'Special Elite', 'Courier New', Courier, monospace" font-size="10" fill="#7E1E1E">2</text>
<text x="1480" y="236" font-family="'Special Elite', 'Courier New', Courier, monospace" font-size="11" fill="#2A1F12" letter-spacing="1">Two-page spread · spine</text>
<text x="1480" y="252" font-family="'IBM Plex Mono', ui-monospace, Menlo, Consolas, monospace" font-size="9.5" fill="#1F2A4A">--leather-shadow 8px</text>
<text x="1480" y="266" font-family="'IBM Plex Mono', ui-monospace, Menlo, Consolas, monospace" font-size="9" fill="#2A1F12" opacity="0.85">Lamp source is consistent with Today's page; one light</text>
<text x="1480" y="278" font-family="'IBM Plex Mono', ui-monospace, Menlo, Consolas, monospace" font-size="9" fill="#2A1F12" opacity="0.85">source for the whole book.</text>
<line x1="780.0" y1="242" x2="1440" y2="396" stroke="#7E1E1E" stroke-width="0.6" stroke-dasharray="2 2" opacity="0.7"/>
<circle cx="780.0" cy="242" r="9" fill="#F1E4C8" stroke="#7E1E1E" stroke-width="1"/>
<text x="780.0" y="246" text-anchor="middle" font-family="'Special Elite', 'Courier New', Courier, monospace" font-size="10" fill="#7E1E1E">3</text>
<circle cx="1464" cy="396" r="9" fill="#F1E4C8" stroke="#7E1E1E" stroke-width="1"/>
<text x="1464" y="400" text-anchor="middle" font-family="'Special Elite', 'Courier New', Courier, monospace" font-size="10" fill="#7E1E1E">3</text>
<text x="1480" y="400" font-family="'Special Elite', 'Courier New', Courier, monospace" font-size="11" fill="#2A1F12" letter-spacing="1">Open-day detail</text>
<text x="1480" y="416" font-family="'IBM Plex Mono', ui-monospace, Menlo, Consolas, monospace" font-size="9.5" fill="#1F2A4A">--paper · --font-hand --ink-blue narrative</text>
<text x="1480" y="430" font-family="'IBM Plex Mono', ui-monospace, Menlo, Consolas, monospace" font-size="9" fill="#2A1F12" opacity="0.85">Right page is read-only history; transmit/regenerate</text>
<text x="1480" y="442" font-family="'IBM Plex Mono', ui-monospace, Menlo, Consolas, monospace" font-size="9" fill="#2A1F12" opacity="0.85">live in DISPATCH.</text>
<line x1="780.0" y1="582" x2="1440" y2="560" stroke="#7E1E1E" stroke-width="0.6" stroke-dasharray="2 2" opacity="0.7"/>
<circle cx="780.0" cy="582" r="9" fill="#F1E4C8" stroke="#7E1E1E" stroke-width="1"/>
<text x="780.0" y="586" text-anchor="middle" font-family="'Special Elite', 'Courier New', Courier, monospace" font-size="10" fill="#7E1E1E">4</text>
<circle cx="1464" cy="560" r="9" fill="#F1E4C8" stroke="#7E1E1E" stroke-width="1"/>
<text x="1464" y="564" text-anchor="middle" font-family="'Special Elite', 'Courier New', Courier, monospace" font-size="10" fill="#7E1E1E">4</text>
<text x="1480" y="564" font-family="'Special Elite', 'Courier New', Courier, monospace" font-size="11" fill="#2A1F12" letter-spacing="1">RESOURCES Δ summary</text>
<text x="1480" y="580" font-family="'IBM Plex Mono', ui-monospace, Menlo, Consolas, monospace" font-size="9.5" fill="#1F2A4A">--font-mono · --ink-brown</text>
<text x="1480" y="594" font-family="'IBM Plex Mono', ui-monospace, Menlo, Consolas, monospace" font-size="9" fill="#2A1F12" opacity="0.85">Day-over-day deltas computed from data-model.md §2</text>
<text x="1480" y="606" font-family="'IBM Plex Mono', ui-monospace, Menlo, Consolas, monospace" font-size="9" fill="#2A1F12" opacity="0.85">daily snapshot.</text>
<line x1="1350" y1="242" x2="1440" y2="724" stroke="#7E1E1E" stroke-width="0.6" stroke-dasharray="2 2" opacity="0.7"/>
<circle cx="1350" cy="242" r="9" fill="#F1E4C8" stroke="#7E1E1E" stroke-width="1"/>
<text x="1350" y="246" text-anchor="middle" font-family="'Special Elite', 'Courier New', Courier, monospace" font-size="10" fill="#7E1E1E">5</text>
<circle cx="1464" cy="724" r="9" fill="#F1E4C8" stroke="#7E1E1E" stroke-width="1"/>
<text x="1464" y="728" text-anchor="middle" font-family="'Special Elite', 'Courier New', Courier, monospace" font-size="10" fill="#7E1E1E">5</text>
<text x="1480" y="728" font-family="'Special Elite', 'Courier New', Courier, monospace" font-size="11" fill="#2A1F12" letter-spacing="1">§5 Right-edge tabs · EVENTS active</text>
<text x="1480" y="744" font-family="'IBM Plex Mono', ui-monospace, Menlo, Consolas, monospace" font-size="9.5" fill="#1F2A4A">--paper · --amber</text>
<text x="1480" y="758" font-family="'IBM Plex Mono', ui-monospace, Menlo, Consolas, monospace" font-size="9" fill="#2A1F12" opacity="0.85">Three redundant active cues per §0.</text>
    <!-- mockup metadata header (rendered at top of annotation rail in PNGs) -->
<text x="1456" y="872" font-family="'Special Elite', 'Courier New', Courier, monospace" font-size="11"
      fill="#2A1F12" letter-spacing="2">PHA-348 · History · past pages · Desktop · ≥1025px</text>
<text x="1456" y="886" font-family="'IBM Plex Mono', ui-monospace, Menlo, Consolas, monospace" font-size="9"
      fill="#2A1F12" opacity="0.7">viewBox 1440×900 device + 360px rail · tokens from design/tokens.css · components from design/components.md</text>

    </svg>
